<svg viewBox="0 0 24 24" xmlns="http://www.w3.org/2000/svg"><path d="M21.5 22.5H21v-5.609a2.45 2.45 0 0 0-2.5-2.391h-3.162a.251.251 0 0 0-.224.139l-.5.993a2.927 2.927 0 0 1-5.236 0l-.5-.993a.25.25 0 0 0-.223-.139H5.5A2.45 2.45 0 0 0 3 16.891V22.5h-.5a.75.75 0 0 0 0 1.5h19a.75.75 0 0 0 0-1.5ZM6.75 20a1 1 0 1 1 1 1 1 1 0 0 1-1-1Zm8.5 0a1 1 0 1 1 1 1 1 1 0 0 1-1-1ZM12 19a1 1 0 1 1-1 1 1 1 0 0 1 1-1Z" fill="#8f8f8f" class="fill-000000"></path><path d="M23 12.5v-1.75a1 1 0 0 0-1-1 .987.987 0 0 0-.95.75H2.949A.986.986 0 0 0 2 9.75a1 1 0 0 0-1 1v1.75a1 1 0 0 0 0 2v2.25a1 1 0 0 0 2 0v-4a.25.25 0 0 1 .25-.25h17.5a.25.25 0 0 1 .25.25v4a1 1 0 0 0 2 0V14.5a1 1 0 0 0 0-2ZM5 9.5a1 1 0 0 0 1-1V2.25A.25.25 0 0 1 6.25 2H16.4a.253.253 0 0 1 .171.068l1.35 1.272a.252.252 0 0 1 .079.182V8.5a1 1 0 0 0 2 0V3.414A1.986 1.986 0 0 0 19.414 2l-1.5-1.414A1.986 1.986 0 0 0 16.5 0H6a2 2 0 0 0-2 2v6.5a1 1 0 0 0 1 1Z" fill="#8f8f8f" class="fill-000000"></path></svg>